<svg xmlns="http://www.w3.org/2000/svg" xmlns:xlink="http://www.w3.org/1999/xlink" aria-hidden="true" role="img" class="iconify iconify--logos" width="31.88" height="32" preserveAspectRatio="xMidYMid meet" viewBox="0 0 256 257"><defs><linearGradient id="IconifyId1813088fe1fbc01fb466" x1="-.828%" x2="57.636%" y1="7.652%" y2="78.411%"><stop offset="0%" stop-color="#41D1FF"></stop><stop offset="100%" stop-color="#BD34FE"></stop></linearGradient><linearGradient id="IconifyId1813088fe1fbc01fb467" x1="43.376%" x2="50.316%" y1="2.242%" y2="89.03%"><stop offset="0%" stop-color="#FFEA83"></stop><stop offset="8.333%" stop-color="#FFDD35"></stop><stop offset="100%" stop-color="#FFA800"></stop></linearGradient></defs><path fill="url(#IconifyId1813088fe1fbc01fb466)" d="M255.153 37.938L134.897 252.976c-2.483 4.44-8.862 4.466-11.382.048L.875 37.958c-2.746-4.814 1.471-10.646 6.927-9.67l120.385 21.517a6.537 6.537 0 0 0 2.322-.004l117.867-21.483c5.438-.991 9.684 4.796 6.877 9.62Z"></path><path fill="url(#IconifyId1813088fe1fbc01fb467)" d="M185.432.063L96.44 15.47a2.368 2.368 0 0 0-1.94 2.042L78.366 143.755c-.292 1.69 1.353 3.068 2.984 2.57l27.26-8.282a2.368 2.368 0 0 1 2.79 1.66l12.908 62.074a2.369 2.369 0 0 0 3.14 1.703l20.088-6.388a2.368 2.368 0 0 1 2.95 1.59l15.394 71.242a2.368 2.368 0 0 0 4.05.77l49.982-76.344a2.368 2.368 0 0 0-1.555-3.563l-31.106-9.02a2.368 2.368 0 0 1-1.606-2.887l19.74-72.036a2.368 2.368 0 0 1 1.61-1.87l32.25-9.338C190.094 2.095 187.586-.136 185.432.063Z"></path></svg>
